<mxfile host="app.diagrams.net" modified="2024-01-12T07:19:37.148Z" agent="Mozilla/5.0 (Windows NT 10.0; Win64; x64) AppleWebKit/537.36 (KHTML, like Gecko) Chrome/120.0.0.0 Safari/537.36" etag="RUJ5kVoyykbsj2elX0Vt" version="22.1.18" type="github">
  <diagram id="C5RBs43oDa-KdzZeNtuy" name="Page-1">
    <mxGraphModel dx="1434" dy="746" grid="1" gridSize="10" guides="1" tooltips="1" connect="1" arrows="1" fold="1" page="1" pageScale="1" pageWidth="827" pageHeight="1169" math="0" shadow="0">
      <root>
        <mxCell id="WIyWlLk6GJQsqaUBKTNV-0" />
        <mxCell id="WIyWlLk6GJQsqaUBKTNV-1" parent="WIyWlLk6GJQsqaUBKTNV-0" />
        <mxCell id="3xh4gDNy4hl7n75_LbkB-38" value="" style="rounded=0;whiteSpace=wrap;html=1;fillColor=none;" vertex="1" parent="WIyWlLk6GJQsqaUBKTNV-1">
          <mxGeometry x="90" y="100" width="600" height="470" as="geometry" />
        </mxCell>
        <mxCell id="3xh4gDNy4hl7n75_LbkB-29" style="edgeStyle=orthogonalEdgeStyle;rounded=0;orthogonalLoop=1;jettySize=auto;html=1;exitX=0;exitY=0.3333333333333333;exitDx=0;exitDy=0;exitPerimeter=0;" edge="1" parent="WIyWlLk6GJQsqaUBKTNV-1" source="3xh4gDNy4hl7n75_LbkB-0" target="3xh4gDNy4hl7n75_LbkB-5">
          <mxGeometry relative="1" as="geometry" />
        </mxCell>
        <mxCell id="3xh4gDNy4hl7n75_LbkB-36" style="edgeStyle=orthogonalEdgeStyle;rounded=0;orthogonalLoop=1;jettySize=auto;html=1;exitX=0;exitY=0.3333333333333333;exitDx=0;exitDy=0;exitPerimeter=0;" edge="1" parent="WIyWlLk6GJQsqaUBKTNV-1" source="3xh4gDNy4hl7n75_LbkB-0" target="3xh4gDNy4hl7n75_LbkB-12">
          <mxGeometry relative="1" as="geometry" />
        </mxCell>
        <mxCell id="3xh4gDNy4hl7n75_LbkB-37" style="edgeStyle=orthogonalEdgeStyle;rounded=0;orthogonalLoop=1;jettySize=auto;html=1;exitX=0;exitY=0.3333333333333333;exitDx=0;exitDy=0;exitPerimeter=0;" edge="1" parent="WIyWlLk6GJQsqaUBKTNV-1" source="3xh4gDNy4hl7n75_LbkB-0" target="3xh4gDNy4hl7n75_LbkB-4">
          <mxGeometry relative="1" as="geometry" />
        </mxCell>
        <mxCell id="3xh4gDNy4hl7n75_LbkB-41" style="edgeStyle=orthogonalEdgeStyle;rounded=0;orthogonalLoop=1;jettySize=auto;html=1;exitX=0;exitY=0.3333333333333333;exitDx=0;exitDy=0;exitPerimeter=0;" edge="1" parent="WIyWlLk6GJQsqaUBKTNV-1" source="3xh4gDNy4hl7n75_LbkB-0" target="3xh4gDNy4hl7n75_LbkB-14">
          <mxGeometry relative="1" as="geometry" />
        </mxCell>
        <mxCell id="3xh4gDNy4hl7n75_LbkB-0" value="&lt;p class=&quot;MsoNormal&quot;&gt;&lt;b&gt;Potential Member&lt;/b&gt;&lt;/p&gt;" style="shape=umlActor;verticalLabelPosition=bottom;verticalAlign=top;html=1;outlineConnect=0;" vertex="1" parent="WIyWlLk6GJQsqaUBKTNV-1">
          <mxGeometry x="740" y="155" width="30" height="60" as="geometry" />
        </mxCell>
        <mxCell id="3xh4gDNy4hl7n75_LbkB-28" style="edgeStyle=orthogonalEdgeStyle;rounded=0;orthogonalLoop=1;jettySize=auto;html=1;exitX=1;exitY=0.3333333333333333;exitDx=0;exitDy=0;exitPerimeter=0;" edge="1" parent="WIyWlLk6GJQsqaUBKTNV-1" source="3xh4gDNy4hl7n75_LbkB-3" target="3xh4gDNy4hl7n75_LbkB-14">
          <mxGeometry relative="1" as="geometry" />
        </mxCell>
        <mxCell id="3xh4gDNy4hl7n75_LbkB-30" style="edgeStyle=orthogonalEdgeStyle;rounded=0;orthogonalLoop=1;jettySize=auto;html=1;exitX=1;exitY=0.3333333333333333;exitDx=0;exitDy=0;exitPerimeter=0;" edge="1" parent="WIyWlLk6GJQsqaUBKTNV-1" source="3xh4gDNy4hl7n75_LbkB-3" target="3xh4gDNy4hl7n75_LbkB-10">
          <mxGeometry relative="1" as="geometry" />
        </mxCell>
        <mxCell id="3xh4gDNy4hl7n75_LbkB-35" style="edgeStyle=orthogonalEdgeStyle;rounded=0;orthogonalLoop=1;jettySize=auto;html=1;exitX=1;exitY=0.3333333333333333;exitDx=0;exitDy=0;exitPerimeter=0;" edge="1" parent="WIyWlLk6GJQsqaUBKTNV-1" source="3xh4gDNy4hl7n75_LbkB-3" target="3xh4gDNy4hl7n75_LbkB-15">
          <mxGeometry relative="1" as="geometry" />
        </mxCell>
        <mxCell id="3xh4gDNy4hl7n75_LbkB-3" value="&lt;p class=&quot;MsoNormal&quot;&gt;&lt;b&gt;Admin Staff&lt;/b&gt;&lt;/p&gt;" style="shape=umlActor;verticalLabelPosition=bottom;verticalAlign=top;html=1;" vertex="1" parent="WIyWlLk6GJQsqaUBKTNV-1">
          <mxGeometry x="50" y="185" width="30" height="60" as="geometry" />
        </mxCell>
        <mxCell id="3xh4gDNy4hl7n75_LbkB-4" value="&lt;p class=&quot;MsoNormal&quot;&gt;&lt;b&gt;&lt;span style=&quot;mso-spacerun:&#39;yes&#39;;font-family:&#39;Segoe UI&#39;;mso-fareast-font-family:宋体;&#xa;color:rgb(55,65,81);font-weight:bold;font-size:12.0000pt;&#xa;mso-font-kerning:0.0000pt;&quot;&gt;Browse Membership Types&lt;/span&gt;&lt;/b&gt;&lt;/p&gt;" style="ellipse;whiteSpace=wrap;html=1;" vertex="1" parent="WIyWlLk6GJQsqaUBKTNV-1">
          <mxGeometry x="530" y="275" width="140" height="70" as="geometry" />
        </mxCell>
        <mxCell id="3xh4gDNy4hl7n75_LbkB-5" value="&lt;p class=&quot;MsoNormal&quot;&gt;&lt;b&gt;&lt;span style=&quot;mso-spacerun:&#39;yes&#39;;font-family:&#39;Segoe UI&#39;;mso-fareast-font-family:宋体;&#xa;color:rgb(55,65,81);font-weight:bold;font-size:12.0000pt;&#xa;mso-font-kerning:0.0000pt;&quot;&gt;Fill In Registration Form&lt;/span&gt;&lt;/b&gt;&lt;/p&gt;" style="ellipse;whiteSpace=wrap;html=1;" vertex="1" parent="WIyWlLk6GJQsqaUBKTNV-1">
          <mxGeometry x="380" y="375" width="140" height="70" as="geometry" />
        </mxCell>
        <mxCell id="3xh4gDNy4hl7n75_LbkB-6" value="&lt;p class=&quot;MsoNormal&quot;&gt;&lt;b&gt;&lt;span style=&quot;mso-spacerun:&#39;yes&#39;;font-family:&#39;Segoe UI&#39;;mso-fareast-font-family:宋体;&#xa;color:rgb(55,65,81);font-weight:bold;font-size:12.0000pt;&#xa;mso-font-kerning:0.0000pt;&quot;&gt;Provide Evidence for Concession&lt;/span&gt;&lt;/b&gt;&lt;/p&gt;" style="ellipse;whiteSpace=wrap;html=1;" vertex="1" parent="WIyWlLk6GJQsqaUBKTNV-1">
          <mxGeometry x="380" y="485" width="140" height="70" as="geometry" />
        </mxCell>
        <mxCell id="3xh4gDNy4hl7n75_LbkB-10" value="&lt;p class=&quot;MsoNormal&quot;&gt;&lt;b&gt;Process Membership Application&lt;/b&gt;&lt;/p&gt;" style="ellipse;whiteSpace=wrap;html=1;" vertex="1" parent="WIyWlLk6GJQsqaUBKTNV-1">
          <mxGeometry x="120" y="385" width="140" height="70" as="geometry" />
        </mxCell>
        <mxCell id="3xh4gDNy4hl7n75_LbkB-12" value="&lt;p class=&quot;MsoNormal&quot;&gt;&lt;b&gt;&lt;span style=&quot;mso-spacerun:&#39;yes&#39;;font-family:&#39;Segoe UI&#39;;mso-fareast-font-family:宋体;&#xa;color:rgb(55,65,81);font-weight:bold;font-size:12.0000pt;&#xa;mso-font-kerning:0.0000pt;&quot;&gt;Set Up Direct Debit&lt;/span&gt;&lt;/b&gt;&lt;/p&gt;" style="ellipse;whiteSpace=wrap;html=1;" vertex="1" parent="WIyWlLk6GJQsqaUBKTNV-1">
          <mxGeometry x="430" y="205" width="140" height="70" as="geometry" />
        </mxCell>
        <mxCell id="3xh4gDNy4hl7n75_LbkB-13" value="&lt;p class=&quot;MsoNormal&quot;&gt;&lt;b&gt;&lt;span style=&quot;mso-spacerun:&#39;yes&#39;;font-family:&#39;Segoe UI&#39;;mso-fareast-font-family:宋体;&#xa;color:rgb(55,65,81);font-weight:bold;font-size:12.0000pt;&#xa;mso-font-kerning:0.0000pt;&quot;&gt;Issue Membership Card&lt;/span&gt;&lt;/b&gt;&lt;/p&gt;" style="ellipse;whiteSpace=wrap;html=1;" vertex="1" parent="WIyWlLk6GJQsqaUBKTNV-1">
          <mxGeometry x="180" y="475" width="140" height="70" as="geometry" />
        </mxCell>
        <mxCell id="3xh4gDNy4hl7n75_LbkB-14" value="&lt;p class=&quot;MsoNormal&quot;&gt;&lt;b&gt;&lt;span style=&quot;mso-spacerun:&#39;yes&#39;;font-family:&#39;Segoe UI&#39;;mso-fareast-font-family:宋体;&#xa;color:rgb(55,65,81);font-weight:bold;font-size:12.0000pt;&#xa;mso-font-kerning:0.0000pt;&quot;&gt;Issue Duplicate Card&lt;/span&gt;&lt;/b&gt;&lt;/p&gt;" style="ellipse;whiteSpace=wrap;html=1;" vertex="1" parent="WIyWlLk6GJQsqaUBKTNV-1">
          <mxGeometry x="210" y="265" width="140" height="70" as="geometry" />
        </mxCell>
        <mxCell id="3xh4gDNy4hl7n75_LbkB-15" value="&lt;p class=&quot;MsoNormal&quot;&gt;&lt;b&gt;&lt;span style=&quot;mso-spacerun:&#39;yes&#39;;font-family:&#39;Segoe UI&#39;;mso-fareast-font-family:宋体;&#xa;color:rgb(55,65,81);font-weight:bold;font-size:12.0000pt;&#xa;mso-font-kerning:0.0000pt;&quot;&gt;Send Payment Details to Finance Department&lt;/span&gt;&lt;/b&gt;&lt;/p&gt;" style="ellipse;whiteSpace=wrap;html=1;" vertex="1" parent="WIyWlLk6GJQsqaUBKTNV-1">
          <mxGeometry x="130" y="115" width="140" height="70" as="geometry" />
        </mxCell>
        <mxCell id="3xh4gDNy4hl7n75_LbkB-16" value="&amp;lt;&amp;lt;include&amp;gt;&amp;gt;" style="html=1;verticalAlign=bottom;labelBackgroundColor=none;endArrow=open;endFill=0;dashed=1;rounded=0;exitX=0.5;exitY=1;exitDx=0;exitDy=0;" edge="1" parent="WIyWlLk6GJQsqaUBKTNV-1" source="3xh4gDNy4hl7n75_LbkB-5" target="3xh4gDNy4hl7n75_LbkB-6">
          <mxGeometry width="160" relative="1" as="geometry">
            <mxPoint x="210" y="525" as="sourcePoint" />
            <mxPoint x="310" y="365" as="targetPoint" />
          </mxGeometry>
        </mxCell>
        <mxCell id="3xh4gDNy4hl7n75_LbkB-32" value="&amp;lt;&amp;lt;include&amp;gt;&amp;gt;" style="html=1;verticalAlign=bottom;labelBackgroundColor=none;endArrow=open;endFill=0;dashed=1;rounded=0;" edge="1" parent="WIyWlLk6GJQsqaUBKTNV-1" source="3xh4gDNy4hl7n75_LbkB-10" target="3xh4gDNy4hl7n75_LbkB-13">
          <mxGeometry width="160" relative="1" as="geometry">
            <mxPoint x="-15" y="465" as="sourcePoint" />
            <mxPoint x="145" y="465" as="targetPoint" />
          </mxGeometry>
        </mxCell>
        <mxCell id="3xh4gDNy4hl7n75_LbkB-42" value="&amp;lt;&amp;lt;include&amp;gt;&amp;gt;" style="html=1;verticalAlign=bottom;labelBackgroundColor=none;endArrow=open;endFill=0;dashed=1;rounded=0;" edge="1" parent="WIyWlLk6GJQsqaUBKTNV-1" source="3xh4gDNy4hl7n75_LbkB-10" target="3xh4gDNy4hl7n75_LbkB-6">
          <mxGeometry width="160" relative="1" as="geometry">
            <mxPoint x="330" y="420" as="sourcePoint" />
            <mxPoint x="490" y="420" as="targetPoint" />
          </mxGeometry>
        </mxCell>
      </root>
    </mxGraphModel>
  </diagram>
</mxfile>
